<svg width="28" height="28" viewBox="0 0 28 28" fill="none" xmlns="http://www.w3.org/2000/svg">
<g id="Employers Logo">
<path id="Vector" d="M15.1808 2.43751C17.0196 0.0127975 19.5759 0.000976562 19.5759 0.000976562C19.5759 0.000976562 19.9562 2.28062 18.1294 4.47664C16.1789 6.8215 13.9619 6.4378 13.9619 6.4378C13.9619 6.4378 13.5456 4.59365 15.1808 2.43751ZM14.1958 8.03468C15.1418 8.03468 16.8974 6.73374 19.1826 6.73374C23.1163 6.73374 24.6637 9.53409 24.6637 9.53409C24.6637 9.53409 21.6371 11.0823 21.6371 14.8388C21.6371 19.0765 25.4075 20.537 25.4075 20.537C25.4075 20.537 22.7719 27.9587 19.2119 27.9587C17.5769 27.9587 16.3057 26.8564 14.5829 26.8564C12.8272 26.8564 11.085 27.9999 9.95028 27.9999C6.69951 27.9999 2.59265 20.9597 2.59265 15.3004C2.59265 9.73256 6.06884 6.81175 9.32936 6.81175C11.449 6.81175 13.0938 8.03468 14.1958 8.03468Z" fill="white"/>
</g>
</svg>
