<svg width="24" height="24" viewBox="0 0 24 24" fill="none" xmlns="http://www.w3.org/2000/svg">
<g id="Employers Logo" clip-path="url(#clip0_1896_1499)">
<g id="Group">
<path id="Vector" fill-rule="evenodd" clip-rule="evenodd" d="M8.83117 0C7.50725 0.000978593 6.43579 1.07547 6.43677 2.39951C6.43579 3.72355 7.50823 4.79804 8.83215 4.79902H11.2275V2.40049C11.2285 1.07645 10.1561 0.00195719 8.83117 0C8.83215 0 8.83215 0 8.83117 0V0ZM8.83117 6.4H2.44545C1.12153 6.40098 0.0490854 7.47547 0.0500639 8.79951C0.0481069 10.1235 1.12055 11.198 2.44447 11.2H8.83117C10.1551 11.199 11.2275 10.1245 11.2266 8.80049C11.2275 7.47547 10.1551 6.40098 8.83117 6.4Z" fill="#36C5F0"/>
<path id="Vector_2" fill-rule="evenodd" clip-rule="evenodd" d="M24 8.79951C24.001 7.47547 22.9285 6.40098 21.6046 6.4C20.2807 6.40098 19.2083 7.47547 19.2092 8.79951V11.2H21.6046C22.9285 11.199 24.001 10.1245 24 8.79951ZM17.6133 8.79951V2.39951C17.6143 1.07645 16.5428 0.00195719 15.2189 0C13.895 0.000978593 12.8225 1.07547 12.8235 2.39951V8.79951C12.8216 10.1235 13.894 11.198 15.2179 11.2C16.5418 11.199 17.6143 10.1245 17.6133 8.79951Z" fill="#2EB67D"/>
<path id="Vector_3" fill-rule="evenodd" clip-rule="evenodd" d="M15.2179 23.9998C16.5418 23.9988 17.6143 22.9244 17.6133 21.6003C17.6143 20.2763 16.5418 19.2018 15.2179 19.2008H12.8225V21.6003C12.8215 22.9234 13.894 23.9979 15.2179 23.9998ZM15.2179 17.5988H21.6046C22.9285 17.5979 24.001 16.5234 24 15.1993C24.002 13.8753 22.9295 12.8008 21.6056 12.7988H15.2189C13.895 12.7998 12.8225 13.8743 12.8235 15.1983C12.8225 16.5234 13.894 17.5979 15.2179 17.5988Z" fill="#ECB22E"/>
<path id="Vector_4" fill-rule="evenodd" clip-rule="evenodd" d="M0.0500896 15.1993C0.049111 16.5234 1.12155 17.5979 2.44547 17.5988C3.76939 17.5979 4.84183 16.5234 4.84085 15.1993V12.7998H2.44547C1.12155 12.8008 0.049111 13.8753 0.0500896 15.1993ZM6.4368 15.1993V21.5993C6.43484 22.9234 7.50728 23.9979 8.8312 23.9998C10.1551 23.9988 11.2276 22.9243 11.2266 21.6003V15.2013C11.2285 13.8772 10.1561 12.8027 8.83218 12.8008C7.50728 12.8008 6.43582 13.8753 6.4368 15.1993C6.4368 15.2003 6.4368 15.1993 6.4368 15.1993Z" fill="#E01E5A"/>
</g>
</g>
<defs>
<clipPath id="clip0_1896_1499">
<rect width="24" height="24" fill="white"/>
</clipPath>
</defs>
</svg>
