<svg width="24" height="24" viewBox="0 0 24 24" fill="none" xmlns="http://www.w3.org/2000/svg">
<g id="Employers Logo">
<g id="Cwb6Ph.tif">
<path id="Vector" d="M4.17745 16.101C4.08722 15.6129 3.96993 15.1339 3.90677 14.6459C3.65414 12.7389 4.06015 10.9764 5.18797 9.40384C6.07218 8.16563 7.2812 7.30703 8.67067 6.71052C10.3398 5.99652 12.1353 5.60788 13.9489 5.57173C15.5639 5.52654 16.9714 6.12305 18.1985 7.1353C19.4616 8.18371 20.4361 9.47614 21.1849 10.9313C21.5458 11.6362 21.8797 12.3593 22.2225 13.0823C22.2586 13.1636 22.2857 13.254 22.3037 13.3444C21.8255 13.6336 21.3654 13.9319 20.8782 14.194C19.0737 15.1881 17.1248 15.866 15.0947 16.2185C13.985 16.4083 12.8662 16.5167 11.7474 16.589C10.6827 16.6613 9.61804 16.6975 8.55338 16.6704C7.10075 16.6342 5.65714 16.4083 4.17745 16.101ZM6.46917 11.2566C6.4421 12.8473 7.73233 14.1307 9.30225 14.1488C10.818 14.1669 12.2346 13.001 12.2346 11.2928C12.2346 9.52133 10.8722 8.40062 9.34736 8.40062C7.76842 8.40062 6.47819 9.67498 6.46917 11.2566ZM17.5579 12.0881C18.415 12.1514 19.3714 11.4374 19.3804 10.2624C19.3895 9.28634 18.6045 8.491 17.6301 8.48196H17.594C16.6015 8.46389 15.7895 9.25923 15.7714 10.2444V10.2715C15.7714 11.3018 16.5383 12.0881 17.5579 12.0881Z" fill="white"/>
<path id="Vector_2" d="M22.3579 13.752C22.4842 15.2703 22.1053 16.608 21.3474 17.8371C20.3188 19.5001 18.785 20.5485 16.9805 21.2083C15.1398 21.8771 13.182 22.1392 11.2331 21.9946C10.0692 21.9132 8.89624 21.7415 7.84963 21.1902C6.04511 20.2322 4.92632 18.7048 4.33985 16.7616C4.31278 16.6441 4.30376 16.5176 4.29474 16.4001C10.6556 17.8733 16.6917 17.2225 22.3579 13.752Z" fill="white"/>
<path id="Vector_3" d="M22.0602 8.22903C22.5293 8.05731 22.5293 8.04827 22.4842 7.60541C22.4571 7.35235 22.4481 7.09928 22.5744 6.85526C22.6286 6.75584 22.6196 6.62931 22.6286 6.51181C22.6466 6.15029 22.9444 5.87012 23.3053 5.87012C23.6662 5.87012 23.9729 6.15933 23.991 6.52085C23.991 6.88237 23.7023 7.18062 23.3414 7.1987C23.2241 7.20774 23.1068 7.1987 22.9444 7.1987C22.9263 7.37946 22.8902 7.54214 22.9083 7.69579C22.9624 8.13865 22.8902 8.50921 22.385 8.69901L23.4135 10.5247L21.8707 11.4827C21.2211 9.97336 20.2286 8.72612 19.0376 7.58733L19.9579 6.46662C20.815 6.87333 21.4556 7.52407 22.0602 8.22903ZM3.49174 13.8235L1.994 13.3174C1.92182 12.4136 2.11129 11.5731 2.44512 10.7506L1.92182 9.91913C1.73234 9.91913 1.54287 9.95529 1.38046 9.9101C1.01956 9.82875 0.667681 9.7203 0.333847 9.58473C0.0721926 9.47627 -0.0451005 9.11475 0.0270799 8.85265C0.126328 8.53632 0.424072 8.33749 0.748884 8.3646C1.05565 8.39171 1.30828 8.6267 1.3534 8.93399C1.37144 9.0786 1.3534 9.23225 1.3534 9.41301H2.14738C2.48121 9.54858 2.46317 9.95529 2.7158 10.2174C3.21204 9.56665 3.69926 8.91592 4.43911 8.45498L5.12482 8.98822C4.60151 9.71126 4.04212 10.3891 3.85264 11.2296C3.66317 12.0792 3.60903 12.9288 3.49174 13.8235Z" fill="white"/>
<path id="Vector_4" d="M9.62708 6.19562L9.32031 5.43643C10.1684 4.75858 11.1338 4.47841 12.1534 4.34284C12.1714 4.0717 12.0361 3.9542 11.8286 3.84575C11.1248 3.48423 11.0075 2.63466 11.5669 2.11949C11.9008 1.8122 12.2978 1.76701 12.6947 1.92066C13.0556 2.04719 13.3083 2.38159 13.3353 2.77023C13.3985 3.18597 13.2 3.59268 12.8391 3.80056C12.7399 3.85478 12.6316 3.89997 12.5323 3.94516L12.6406 4.28861C13.5519 4.27053 14.4451 4.27957 15.3293 4.63205L15.203 5.3822C13.3353 5.39124 11.4406 5.29182 9.62708 6.19562Z" fill="white"/>
</g>
</g>
</svg>
