<svg width="28" height="28" viewBox="0 0 28 28" fill="none" xmlns="http://www.w3.org/2000/svg">
<g id="Employers Logo">
<path id="Vector" d="M8.96957 28.0003C11.5048 28.0003 13.5624 25.9096 13.5624 23.3336V18.667H8.96957C6.43435 18.667 4.37677 20.7576 4.37677 23.3336C4.37677 25.9096 6.43435 28.0003 8.96957 28.0003Z" fill="#0ACF83"/>
<path id="Vector_2" d="M4.37677 13.9996C4.37677 11.4237 6.43435 9.33301 8.96957 9.33301H13.5624V18.6663H8.96957C6.43435 18.6663 4.37677 16.5756 4.37677 13.9996Z" fill="#A259FF"/>
<path id="Vector_3" d="M4.3772 4.66667C4.3772 2.09067 6.43477 0 8.97 0H13.5628V9.33333H8.97C6.43477 9.33333 4.3772 7.24267 4.3772 4.66667Z" fill="#F24E1E"/>
<path id="Vector_4" d="M13.5625 0H18.1554C20.6906 0 22.7482 2.09067 22.7482 4.66667C22.7482 7.24267 20.6906 9.33333 18.1554 9.33333H13.5625V0Z" fill="#FF7262"/>
<path id="Vector_5" d="M22.7482 13.9996C22.7482 16.5756 20.6906 18.6663 18.1554 18.6663C15.6201 18.6663 13.5625 16.5756 13.5625 13.9996C13.5625 11.4237 15.6201 9.33301 18.1554 9.33301C20.6906 9.33301 22.7482 11.4237 22.7482 13.9996Z" fill="#1ABCFE"/>
</g>
</svg>
