<svg width="28" height="28" viewBox="0 0 28 28" fill="none" xmlns="http://www.w3.org/2000/svg">
<g id="Employers Logo" clip-path="url(#clip0_1896_1331)">
<path id="Vector" d="M6.20539 16.9207L5.23075 20.5592L1.66846 20.6346C0.603859 18.66 0 16.4008 0 14C0 11.6785 0.564594 9.4892 1.56537 7.56152H1.56614L4.73758 8.14296L6.12686 11.2954C5.83609 12.1431 5.6776 13.0531 5.6776 14C5.67771 15.0277 5.86387 16.0123 6.20539 16.9207Z" fill="#FBBB00"/>
<path id="Vector_2" d="M27.7553 11.3848C27.9161 12.2317 28 13.1063 28 14.0001C28 15.0025 27.8946 15.9802 27.6938 16.9232C27.0123 20.1325 25.2315 22.9348 22.7646 24.9178L22.7638 24.9171L18.7693 24.7133L18.2039 21.184C19.8408 20.224 21.1201 18.7217 21.7939 16.9232H14.3077V11.3848H21.9031H27.7553Z" fill="#518EF8"/>
<path id="Vector_3" d="M22.7639 24.917L22.7647 24.9178C20.3655 26.8462 17.3177 28.0001 14.0001 28.0001C8.66852 28.0001 4.03315 25.0201 1.66852 20.6347L6.20545 16.9209C7.38774 20.0763 10.4316 22.3224 14.0001 22.3224C15.5339 22.3224 16.9708 21.9078 18.2039 21.184L22.7639 24.917Z" fill="#28B446"/>
<path id="Vector_4" d="M22.9361 3.22306L18.4007 6.93612C17.1246 6.13845 15.6161 5.67766 14 5.67766C10.3507 5.67766 7.24997 8.02687 6.12691 11.2954L1.56613 7.56153H1.56537C3.89538 3.06923 8.58921 0 14 0C17.3969 0 20.5115 1.21002 22.9361 3.22306Z" fill="#F14336"/>
</g>
<defs>
<clipPath id="clip0_1896_1331">
<rect width="28" height="28" fill="white"/>
</clipPath>
</defs>
</svg>
