<svg width="28" height="28" viewBox="0 0 28 28" fill="none" xmlns="http://www.w3.org/2000/svg">
<g id="Employers Logo">
<path id="Vector" d="M21.564 15.3283C20.2965 15.3283 19.1088 14.7929 18.0297 13.9214L18.2925 12.6911L18.3039 12.6455C18.5379 11.3356 19.2802 9.13691 21.564 9.13691C23.2768 9.13691 24.67 10.5267 24.67 12.2354C24.6643 13.9384 23.2712 15.3283 21.564 15.3283ZM21.564 5.99861C18.6463 5.99861 16.3855 7.88962 15.4663 10.9995C14.0617 8.89772 12.9996 6.37457 12.3774 4.25H9.2371V12.4006C9.2371 14.0068 7.92387 15.3167 6.31375 15.3167C4.70363 15.3167 3.39055 14.0068 3.39055 12.4006V4.25H0.249975V12.4006C0.23855 15.7384 2.96205 18.4779 6.30781 18.4779C9.65372 18.4779 12.3772 15.7384 12.3772 12.4006V11.0337C12.9881 12.3038 13.736 13.5853 14.6439 14.7245L12.7197 23.7464H15.9343L17.3273 17.2021C18.5491 17.9824 19.9538 18.4723 21.5639 18.4723C25.0067 18.4723 27.8102 15.6586 27.8102 12.224C27.8102 8.79515 25.0067 5.99861 21.5639 5.99861H21.564Z" fill="white"/>
</g>
</svg>
