<svg width="28" height="28" viewBox="0 0 28 28" fill="none" xmlns="http://www.w3.org/2000/svg">
<g id="Employers Logo" clip-path="url(#clip0_1896_1263)">
<path id="Vector" d="M9.52422 2.57297C10.7723 2.96178 11.1596 3.9662 11.1596 5.11102C11.1489 6.01823 11.0413 6.92545 10.8261 7.81107C10.3634 9.8307 9.7932 11.8287 9.3198 13.8376C8.93247 15.49 8.57742 17.164 8.56666 18.8705C8.57742 19.3349 8.65273 19.7993 8.78184 20.2421C9.0293 21.1277 9.77168 21.1925 10.3312 20.6525C10.6862 20.3069 11.009 19.9397 11.2995 19.5401C12.6982 17.6716 13.9355 15.6844 14.9899 13.6C16.012 11.6019 18.3467 7.08745 18.4866 6.81745C19.2182 5.46742 21.2409 5.69423 21.8542 7.01185C22.1985 7.72467 22.3922 8.51308 22.4244 9.30149C22.4782 11.0079 22.6396 15.7708 22.7149 16.4512C22.8548 17.7688 23.694 18.1901 24.813 17.4556C25.4908 17.0128 26.1041 16.4512 26.7173 15.922C27.2876 15.4144 27.5888 15.4684 27.8686 16.1812C28.116 16.8076 28.0084 17.434 27.804 18.0281C27.1154 20.0369 25.6199 21.1061 23.6295 21.5381C22.9947 21.6785 22.3384 21.6893 21.6928 21.5813C20.2618 21.3437 19.3473 20.5121 18.7986 19.2269C18.2714 17.9849 18.11 14.4532 17.9917 13.9996C17.798 14.41 15.5063 19.1513 14.3013 20.9549C13.5481 22.1105 12.6336 23.1581 11.5792 24.0546C10.5356 24.9294 9.35208 25.4694 7.96415 25.5018C6.28572 25.545 5.06994 24.7782 4.23072 23.3525C3.69277 22.4345 3.46682 21.4085 3.39151 20.3501C3.28392 18.8705 3.52062 17.4232 3.84339 15.976C3.95099 15.5116 4.0263 15.0364 4.14465 14.4424C3.68201 14.68 3.38075 14.896 3.03646 15.0148C2.62761 15.1552 2.18649 15.2956 1.75612 15.2848C0.228322 15.2416 0.00238037 13.546 0.00238037 13.2652C0.518819 12.8656 1.06754 12.4984 1.54094 12.0663C3.80036 10.0143 5.5003 7.55186 6.72685 4.76541C7.13569 3.8474 7.64137 3.05898 8.54514 2.57297C8.8464 2.44337 9.11537 2.43257 9.52422 2.57297Z" fill="white"/>
</g>
<defs>
<clipPath id="clip0_1896_1263">
<rect width="28" height="28" fill="white"/>
</clipPath>
</defs>
</svg>
